<svg width="64" height="64" viewBox="0 0 64 64" fill="none" xmlns="http://www.w3.org/2000/svg">
  <defs>
    <linearGradient id="bg" x1="0" y1="0" x2="64" y2="64" gradientUnits="userSpaceOnUse">
      <stop stop-color="#8b6cf7"/>
      <stop offset="1" stop-color="#5b4fe0"/>
    </linearGradient>
    <linearGradient id="flame" x1="32" y1="10" x2="32" y2="56" gradientUnits="userSpaceOnUse">
      <stop stop-color="#ffffff"/>
      <stop offset="1" stop-color="#f2c94c"/>
    </linearGradient>
  </defs>
  <rect width="64" height="64" rx="16" fill="url(#bg)"/>
  <path d="M33 9c5 9 1 14 4 18 2-2 3-5 3-8 5 5 9 11 9 19 0 10-8 17-17 17s-17-7-17-17c0-6 3-11 7-15-1 6 2 9 4 9-3-8 0-17 7-23z" fill="url(#flame)"/>
  <circle cx="32" cy="41" r="6" fill="#5b4fe0" opacity="0.55"/>
</svg>
